<svg width="90" height="56" viewBox="0 0 90 56" fill="none" xmlns="http://www.w3.org/2000/svg">
<!-- <rect x="8" y="3.02734" width="82" height="21" fill="black"/> -->
<!-- <path d="M17.7007 14.166C17.7007 13.284 17.8987 12.348 18.3307 11.556C18.3307 11.178 17.1247 11.43 16.8007 10.674C16.8727 10.422 16.9267 10.17 16.9987 9.918L17.5927 7.974C17.6647 7.776 17.7367 7.65 17.8627 7.614C17.9707 7.578 18.2947 7.614 18.4927 7.668C18.5287 8.19 18.7447 8.46 19.2307 8.46H24.0547C24.9187 8.46 25.4047 9.018 25.4407 10.386V14.742C25.4407 15.084 25.4047 15.714 25.2607 16.074L24.5227 17.658C24.3967 17.892 24.1987 18 24.0187 18H18.0787C17.8267 18 17.7007 17.892 17.7007 17.658V14.166ZM19.2847 14.796C19.2847 15.03 19.3747 15.156 19.5907 15.156H23.3347C23.8387 15.156 23.9467 15.012 23.9467 14.544V12.618C23.9467 11.7 23.8927 11.304 23.3347 11.304H19.6627C19.4107 11.304 19.3027 11.466 19.2847 11.772V14.796ZM34.085 8.46C35.579 8.46 36.083 9.396 36.083 10.764V13.572C36.083 13.986 36.173 16.452 36.353 17.694C36.353 17.712 36.299 17.748 36.227 17.766L34.463 18.144C34.373 18.144 34.319 18.126 34.319 18.018V12.348C34.319 11.52 34.085 11.304 33.257 11.304H30.233C29.927 11.304 29.891 11.916 29.891 12.546V13.482C29.891 14.688 29.999 16.434 30.179 17.676V17.694C30.179 17.712 30.125 17.748 30.053 17.766L28.235 18.144H28.217C28.145 18.144 28.073 18.144 28.073 18.018V14.256C28.073 12.474 28.505 11.736 28.829 11.304H28.613C27.965 11.304 27.263 11.088 26.921 10.674V10.458L27.749 7.92C27.803 7.74 27.893 7.65 27.983 7.614C28.091 7.578 28.433 7.614 28.613 7.668C28.649 8.19 28.865 8.46 29.333 8.46H34.085ZM38.596 8.082C38.668 7.83 38.776 7.686 38.902 7.632C39.01 7.578 39.442 7.632 39.532 7.668C39.568 8.19 39.802 8.46 40.27 8.46H43.996C45.364 8.46 45.958 9.234 45.958 10.512V13.788C45.958 14.202 46.048 16.47 46.228 17.712C46.21 17.748 46.156 17.784 46.084 17.802L44.374 18.126H44.302C44.248 18.126 44.194 18.108 44.194 18.018V12.456C44.194 11.61 43.924 11.304 43.294 11.304H39.604C38.812 11.304 38.2 11.106 37.84 10.674V10.44L38.596 8.082ZM38.326 13.986C38.326 13.896 38.344 13.842 38.416 13.77L39.154 13.032C39.262 12.96 39.37 12.942 39.55 12.942H39.802C39.91 12.942 39.928 13.032 39.928 13.122C39.946 14.382 40.108 15.966 40.468 17.568C40.486 17.64 40.396 17.694 40.252 17.748L38.398 18.144H38.362C38.308 18.144 38.272 18.126 38.272 18.018L38.326 13.986ZM56.855 12.258C56.855 11.556 56.603 11.304 56.009 11.304H53.345C52.553 11.304 51.941 11.106 51.581 10.674L52.355 8.136C52.427 7.956 52.499 7.776 52.607 7.632C52.661 7.56 53.219 7.578 53.309 7.686C53.237 8.388 53.723 8.46 54.191 8.46H56.531C57.953 8.46 58.619 9.306 58.619 10.728V13.788C58.619 14.202 58.709 16.47 58.889 17.712C58.871 17.748 58.817 17.784 58.745 17.802L57.035 18.126H56.963C56.909 18.126 56.855 18.108 56.855 18.018V12.258ZM61.5343 14.868C61.4083 14.778 61.3363 14.652 61.3723 14.49L61.9843 11.934C62.0203 11.808 62.0923 11.538 61.7863 11.448L60.7603 11.178C60.0223 10.998 59.7703 10.62 59.7703 10.44L60.5083 8.046C60.6883 7.452 60.9223 7.434 61.4623 7.578C61.4443 8.1 61.5703 8.298 62.0023 8.424L63.3343 8.784C64.3423 9.036 64.2163 10.458 63.8383 11.538L62.9023 14.436C62.8663 14.508 62.8123 14.58 62.7223 14.616L61.5343 14.868ZM72.2609 17.19C72.1889 17.442 72.0809 17.64 71.9909 17.64L65.7449 18.324C65.6009 18.324 65.5289 18.252 65.5289 18.162C65.6549 17.388 65.7629 16.614 65.8889 15.822C66.2669 15.552 66.8249 15.426 67.4009 15.354C68.4629 15.264 69.5249 15.192 70.5869 15.102L70.5689 15.084C69.9209 14.814 68.2829 13.698 67.3649 13.014C65.9609 11.97 65.2949 10.872 65.2049 10.188C65.5109 9.45 65.8709 8.73 66.1769 7.992C66.2669 7.776 66.4469 7.614 66.6809 7.614C66.7889 7.614 67.1129 7.65 67.2749 7.686C67.2749 7.83 67.2569 7.956 67.2569 8.082C67.2569 8.856 67.6709 10.548 69.8309 12.384C70.0829 11.574 70.1369 10.584 70.2449 9.738C70.7129 8.316 70.9469 7.596 71.2709 7.596C71.3069 7.596 71.7209 7.596 71.8469 7.65C71.8289 7.812 71.8289 7.956 71.8289 8.064C71.8289 8.244 71.8469 8.334 71.9009 8.334C72.6029 8.334 73.5209 8.514 73.5569 8.784C73.4309 9.324 72.9809 10.962 72.7109 11.61C72.2969 11.448 71.7749 11.322 71.2889 11.304C71.1989 11.52 71.1629 11.682 70.7309 12.78C70.6769 12.888 70.6589 12.996 70.7489 13.086C71.2889 13.626 72.0989 14.292 72.4409 14.58C72.6569 14.76 72.7469 15.03 72.7469 15.228C72.7469 15.354 72.7109 15.534 72.6749 15.66L72.2609 17.19ZM75.5979 8.082C75.6699 7.83 75.7779 7.686 75.9039 7.632C76.0119 7.578 76.4439 7.632 76.5339 7.668C76.5699 8.19 76.8039 8.46 77.2719 8.46H80.9979C82.3659 8.46 82.9599 9.234 82.9599 10.512V13.788C82.9599 14.202 83.0499 16.47 83.2299 17.712C83.2119 17.748 83.1579 17.784 83.0859 17.802L81.3759 18.126H81.3039C81.2499 18.126 81.1959 18.108 81.1959 18.018V12.456C81.1959 11.61 80.9259 11.304 80.2959 11.304H76.6059C75.8139 11.304 75.2019 11.106 74.8419 10.674V10.44L75.5979 8.082ZM75.3279 13.986C75.3279 13.896 75.3459 13.842 75.4179 13.77L76.1559 13.032C76.2639 12.96 76.3719 12.942 76.5519 12.942H76.8039C76.9119 12.942 76.9299 13.032 76.9299 13.122C76.9479 14.382 77.1099 15.966 77.4699 17.568C77.4879 17.64 77.3979 17.694 77.2539 17.748L75.3999 18.144H75.3639C75.3099 18.144 75.2739 18.126 75.2739 18.018L75.3279 13.986Z" fill="white"/> -->
<path d="M61.5283 29.0352C64.193 29.0352 66.8162 29.0352 69.4864 29.0352C69.8341 31.5354 70.1815 34.0339 70.5294 36.5353C71.6857 36.2747 72.0993 35.634 72.1755 34.4622C71.9581 34.4622 71.7416 34.4622 71.4878 34.4622C71.2545 32.6467 71.0243 30.8551 70.7915 29.0424C73.8275 29.0424 76.8408 29.0424 79.8833 29.0424C79.9223 29.7297 79.9754 30.4096 79.9961 31.0904C80.0369 32.4234 80.0061 33.7547 79.7729 35.0755C79.5146 36.5397 79.0072 37.9108 77.9438 39.0776C76.9819 40.1328 75.7428 40.8231 74.3315 41.2487C73.4006 41.5292 72.4328 41.7111 71.4786 41.9264C71.3347 41.9589 71.2544 41.9822 71.2772 42.1371C71.3367 42.5397 71.3882 42.9435 71.4308 43.3479C71.4467 43.4996 71.5152 43.5646 71.6841 43.5571C73.4644 43.4781 75.2347 43.3522 76.9498 42.8589C79.1549 42.2247 80.5193 40.855 81.236 38.9128C81.6905 37.6811 81.8727 36.4058 81.9341 35.1137C81.9438 34.9083 81.9616 34.7032 81.9777 34.4656C81.7347 34.4656 81.5195 34.4656 81.2661 34.4656C81.0324 32.6477 80.8023 30.8563 80.5693 29.0434C83.6544 29.0434 86.7173 29.0434 89.8114 29.0434C89.8388 29.4122 89.881 29.7879 89.8917 30.1643C89.9355 31.7124 90.0225 33.2615 89.9952 34.8087C89.952 37.2528 89.5707 39.6505 88.4875 41.9207C87.2819 44.4473 85.2777 46.2942 82.5951 47.562C80.7205 48.4482 78.7093 48.9609 76.6413 49.3051C74.4153 49.6755 72.167 49.8647 69.9039 49.8888C68.4677 49.9041 67.0312 49.8971 65.5948 49.8885C64.6615 49.8831 64.1374 49.4259 64.031 48.5883C63.8152 46.8881 63.5837 45.1896 63.3631 43.4898C63.1637 41.953 62.9729 40.4154 62.7736 38.8787C62.6055 37.5826 62.4246 36.2876 62.2605 34.9911C62.0605 33.4111 61.8724 31.8301 61.679 30.2494C61.6307 29.8551 61.5812 29.4611 61.5283 29.0352Z" fill="black"/>
<path d="M29.7724 55.9737C27.1385 55.9737 24.5336 55.9737 21.897 55.9737C21.8731 55.5621 21.844 55.1254 21.8231 54.6886C21.7291 52.7182 21.6363 50.7476 21.5453 48.7771C21.4818 47.4028 21.4242 46.0283 21.36 44.6541C21.2702 42.7355 21.1766 40.8169 21.0851 38.8983C21.0451 38.06 21.0163 37.2211 20.964 36.3834C20.9198 35.6777 20.5061 35.3388 19.7257 35.3375C18.9877 35.3363 18.2496 35.3431 17.5117 35.3333C17.312 35.3306 17.2271 35.3853 17.1817 35.5657C17.0204 36.2059 16.8458 36.8436 16.6591 37.4781C16.6139 37.6316 16.6564 37.6924 16.8042 37.7545C17.7928 38.17 18.7748 38.5981 19.7659 39.0084C19.9995 39.1051 20.0456 39.1947 19.932 39.4136C19.2208 40.7829 18.532 42.1618 17.824 43.5326C17.3675 44.4165 16.5622 44.6809 15.5688 44.2745C13.2163 43.3121 10.8672 42.343 8.51809 41.3739C7.93637 41.134 7.93781 41.1292 8.07631 40.587C9.03533 36.8325 9.99659 33.0785 10.9494 29.3229C11.0019 29.1159 11.092 29.0436 11.3314 29.0426C13.4489 29.0334 15.5663 28.999 17.6836 29C18.9855 29.0006 20.2929 28.9915 21.5882 29.0901C24.2411 29.292 26.4306 30.2684 27.8309 32.4103C28.4147 33.3034 28.6882 34.2923 28.8105 35.3155C28.8669 35.7879 28.8859 36.2638 28.9289 36.7376C28.9435 36.8982 28.8948 36.9737 28.7054 37.0291C27.0938 37.4999 26.1672 38.7183 26.2238 40.2661C26.2725 41.5954 27.3964 42.7933 28.9426 43.1291C29.1986 43.1847 29.2002 43.3256 29.2083 43.482C29.2524 44.3375 29.287 45.1933 29.3268 46.049C29.4188 48.0282 29.5119 50.0073 29.6045 51.9865C29.6639 53.257 29.7231 54.5275 29.7817 55.798C29.7837 55.84 29.7776 55.8822 29.7724 55.9737Z" fill="black"/>
<path d="M39.5595 35.3362C39.2884 33.223 39.0212 31.1403 38.752 29.041C46.1395 29.041 53.4967 29.041 60.8865 29.041C60.9073 29.281 60.9373 29.527 60.9486 29.7739C61.0134 31.1914 61.0728 32.609 61.1361 34.0265C61.1855 35.1325 61.2547 36.2381 61.2858 37.3446C61.368 40.2638 60.3466 42.8543 58.3601 45.1388C56.7569 46.9824 55.1284 48.808 53.5107 50.6413C53.4992 50.6544 53.4808 50.6624 53.4355 50.6935C53.0542 50.3522 52.6529 50.0206 52.2866 49.6599C51.3289 48.7169 50.3688 47.7747 49.4432 46.806C48.6909 46.0187 48.7252 44.8335 49.4213 44.0026C50.5017 42.7132 51.5639 41.411 52.6157 40.1023C53.0659 39.542 53.3716 38.9112 53.4143 38.2113C53.4426 37.7468 53.3995 37.2784 53.3829 36.8119C53.3687 36.4143 53.3344 36.0168 53.3328 35.6192C53.332 35.3952 53.2481 35.3306 52.9968 35.331C48.6553 35.3382 44.3137 35.3362 39.9723 35.3362C39.8482 35.3362 39.7242 35.3362 39.5595 35.3362Z" fill="black"/>
<path d="M28.8248 29.041C31.8275 29.041 34.8229 29.041 37.8659 29.041C38.1883 35.96 38.5103 42.8724 38.8343 49.8258C38.7059 49.8258 38.6048 49.8258 38.5038 49.8258C36.5772 49.8258 34.6506 49.8263 32.724 49.8256C31.61 49.8251 30.9542 49.2911 30.8939 48.2947C30.8108 46.9208 30.7573 45.5454 30.6859 44.171C30.6715 43.895 30.6422 43.619 30.6036 43.3448C30.5805 43.1807 30.6336 43.1019 30.8145 43.0445C32.3201 42.5668 33.2204 41.409 33.2095 39.9829C33.1988 38.5973 32.1271 37.3523 30.6182 37.0042C30.3551 36.9435 30.229 36.8573 30.2394 36.6042C30.254 36.2438 30.2431 35.8825 30.2431 35.5543C30.1564 35.5148 30.1405 35.5023 30.1233 35.5006C29.6311 35.4514 29.6145 35.4533 29.5546 35.0042C29.4045 33.8797 29.2718 32.7532 29.1305 31.6277C29.0301 30.8286 28.9263 30.03 28.8258 29.231C28.8184 29.1731 28.8248 29.1139 28.8248 29.041Z" fill="black"/>
<path d="M48.7051 55.9996C46.0399 55.9996 43.4081 55.9996 40.734 55.9996C40.4524 49.9585 40.1715 43.9287 39.8887 37.8594C42.5335 37.6437 45.1622 37.4683 47.8367 37.4375C48.1262 43.6261 48.4151 49.7999 48.7051 55.9996Z" fill="black"/>
</svg>
