<svg width="82" height="27" viewBox="0 0 82 27" fill="none" xmlns="http://www.w3.org/2000/svg">
<path d="M53.5283 0.0351562C56.193 0.0351562 58.8162 0.0351562 61.4864 0.0351562C61.8341 2.53544 62.1815 5.0339 62.5294 7.53533C63.6857 7.27466 64.0993 6.63399 64.1755 5.46216C63.9581 5.46216 63.7416 5.46216 63.4878 5.46216C63.2545 3.64665 63.0243 1.85508 62.7915 0.0424272C65.8275 0.0424272 68.8408 0.0424272 71.8833 0.0424272C71.9223 0.729691 71.9754 1.40958 71.9961 2.09035C72.0369 3.42343 72.0061 4.75475 71.7729 6.07552C71.5146 7.53969 71.0072 8.91084 69.9438 10.0776C68.9819 11.1328 67.7428 11.8231 66.3315 12.2487C65.4006 12.5292 64.4328 12.7111 63.4786 12.9264C63.3347 12.9589 63.2544 12.9822 63.2772 13.1371C63.3367 13.5397 63.3882 13.9435 63.4308 14.3479C63.4467 14.4996 63.5152 14.5646 63.6841 14.5571C65.4644 14.4781 67.2347 14.3522 68.9498 13.8589C71.1549 13.2247 72.5193 11.855 73.236 9.91278C73.6905 8.68108 73.8727 7.4058 73.9341 6.1137C73.9438 5.90829 73.9616 5.7032 73.9777 5.46559C73.7347 5.46559 73.5195 5.46559 73.2661 5.46559C73.0324 3.64774 72.8023 1.85633 72.5693 0.0433621C75.6544 0.0433621 78.7173 0.0433621 81.8114 0.0433621C81.8388 0.412157 81.881 0.787859 81.8917 1.16429C81.9355 2.71244 82.0225 4.26147 81.9952 5.80873C81.952 8.25277 81.5707 10.6505 80.4875 12.9207C79.2819 15.4473 77.2778 17.2942 74.5951 18.562C72.7205 19.4482 70.7093 19.9609 68.6413 20.3051C66.4153 20.6755 64.167 20.8647 61.9039 20.8888C60.4677 20.9041 59.0312 20.8971 57.5948 20.8885C56.6615 20.8831 56.1374 20.4259 56.031 19.5883C55.8152 17.8881 55.5837 16.1896 55.3631 14.4898C55.1637 12.953 54.9729 11.4154 54.7736 9.87871C54.6055 8.58256 54.4246 7.28765 54.2605 5.99113C54.0605 4.41114 53.8724 2.83007 53.679 1.24941C53.6307 0.855063 53.5812 0.46108 53.5283 0.0351562Z" fill="black"/>
<path d="M21.7724 26.9737C19.1385 26.9737 16.5336 26.9737 13.897 26.9737C13.8731 26.5621 13.844 26.1254 13.8231 25.6886C13.7291 23.7182 13.6363 21.7476 13.5453 19.7771C13.4818 18.4028 13.4242 17.0283 13.36 15.6541C13.2702 13.7355 13.1766 11.8169 13.0851 9.89832C13.0451 9.05998 13.0163 8.22111 12.964 7.38344C12.9198 6.67769 12.5061 6.33876 11.7257 6.33746C10.9877 6.33627 10.2496 6.34307 9.51174 6.33331C9.31205 6.33061 9.22709 6.38535 9.18165 6.56572C9.02044 7.20593 8.84582 7.84359 8.65907 8.47814C8.61392 8.63156 8.65642 8.69238 8.80424 8.75449C9.79276 9.16998 10.7748 9.59813 11.7659 10.0084C11.9995 10.1051 12.0456 10.1947 11.932 10.4136C11.2208 11.7829 10.532 13.1618 9.82399 14.5326C9.36749 15.4165 8.56215 15.6809 7.56879 15.2745C5.21633 14.3121 2.86721 13.3431 0.518085 12.3739C-0.0636311 12.134 -0.0621932 12.1292 0.0763053 11.587C1.03533 7.83253 1.99659 4.07852 2.9494 0.322855C3.00191 0.115943 3.09204 0.0435969 3.33142 0.0426102C5.44887 0.0334176 7.56626 -0.00101571 9.6836 2.30063e-05C10.9855 0.000594298 12.2929 -0.00849443 13.5882 0.0900793C16.2411 0.291953 18.4306 1.26839 19.8309 3.41032C20.4147 4.3034 20.6882 5.29231 20.8105 6.31549C20.8669 6.7879 20.8859 7.26384 20.9289 7.73759C20.9435 7.89818 20.8948 7.97374 20.7054 8.02905C19.0938 8.49985 18.1672 9.71831 18.2238 11.2661C18.2725 12.5954 19.3964 13.7933 20.9426 14.1291C21.1986 14.1847 21.2002 14.3256 21.2083 14.482C21.2524 15.3375 21.287 16.1933 21.3268 17.049C21.4188 19.0282 21.5119 21.0073 21.6045 22.9865C21.6639 24.257 21.7231 25.5275 21.7817 26.798C21.7837 26.84 21.7776 26.8822 21.7724 26.9737Z" fill="black"/>
<path d="M31.5595 6.33623C31.2884 4.22297 31.0212 2.1403 30.752 0.0410156C38.1395 0.0410156 45.4967 0.0410156 52.8865 0.0410156C52.9073 0.280958 52.9373 0.527029 52.9486 0.773878C53.0134 2.19136 53.0728 3.60899 53.1361 5.02647C53.1855 6.13254 53.2547 7.23809 53.2858 8.34458C53.368 11.2638 52.3466 13.8543 50.3601 16.1388C48.7569 17.9824 47.1284 19.808 45.5107 21.6413C45.4992 21.6544 45.4808 21.6624 45.4355 21.6935C45.0542 21.3522 44.6529 21.0206 44.2866 20.6599C43.3289 19.7169 42.3688 18.7747 41.4432 17.806C40.6909 17.0187 40.7252 15.8335 41.4213 15.0026C42.5017 13.7132 43.5639 12.411 44.6157 11.1023C45.0659 10.542 45.3716 9.91121 45.4143 9.21133C45.4426 8.74682 45.3995 8.27836 45.3829 7.81193C45.3687 7.41426 45.3344 7.01679 45.3328 6.61923C45.332 6.39518 45.2481 6.33057 44.9968 6.33098C40.6553 6.3382 36.3137 6.33623 31.9723 6.33623C31.8482 6.33623 31.7242 6.33623 31.5595 6.33623Z" fill="black"/>
<path d="M20.8248 0.0410156C23.8275 0.0410156 26.8229 0.0410156 29.8659 0.0410156C30.1883 6.95998 30.5103 13.8724 30.8343 20.8258C30.7059 20.8258 30.6048 20.8258 30.5038 20.8258C28.5772 20.8258 26.6506 20.8263 24.724 20.8256C23.61 20.8251 22.9542 20.2911 22.8939 19.2947C22.8108 17.9208 22.7573 16.5454 22.6859 15.171C22.6715 14.895 22.6422 14.619 22.6036 14.3448C22.5805 14.1807 22.6336 14.1019 22.8145 14.0445C24.3201 13.5668 25.2204 12.409 25.2095 10.9829C25.1988 9.59732 24.1271 8.35232 22.6182 8.00419C22.3551 7.94348 22.229 7.85727 22.2394 7.60419C22.254 7.24381 22.2431 6.88254 22.2431 6.55426C22.1564 6.51484 22.1405 6.50232 22.1233 6.50061C21.6311 6.45137 21.6145 6.45329 21.5546 6.00421C21.4045 4.8797 21.2718 3.75316 21.1305 2.62767C21.0301 1.82864 20.9263 1.02997 20.8258 0.231048C20.8184 0.173088 20.8248 0.113881 20.8248 0.0410156Z" fill="black"/>
<path d="M40.7051 26.9996C38.0399 26.9996 35.4081 26.9996 32.734 26.9996C32.4524 20.9585 32.1715 14.9287 31.8887 8.85942C34.5335 8.64374 37.1622 8.4683 39.8367 8.4375C40.1262 14.6261 40.4151 20.7999 40.7051 26.9996Z" fill="black"/>
</svg>
